<svg width="256" height="256" viewBox="0 0 256 256" fill="none" xmlns="http://www.w3.org/2000/svg">
  <defs>
    <linearGradient id="guideBlue" x1="43" y1="31" x2="219" y2="218" gradientUnits="userSpaceOnUse">
      <stop offset="0" stop-color="#1e6fb8"/>
      <stop offset="1" stop-color="#0d4c8f"/>
    </linearGradient>
    <linearGradient id="guideOrange" x1="43" y1="94" x2="168" y2="185" gradientUnits="userSpaceOnUse">
      <stop offset="0" stop-color="#ff8a1d"/>
      <stop offset="1" stop-color="#ff6b00"/>
    </linearGradient>
  </defs>

  <rect width="256" height="256" rx="42" fill="white"/>
  <g stroke-linecap="round" stroke-linejoin="round">
    <path d="M70 142H30" stroke="url(#guideOrange)" stroke-width="11"/>
    <circle cx="24" cy="142" r="8.5" fill="white" stroke="url(#guideOrange)" stroke-width="8"/>

    <path d="M79 177H54" stroke="url(#guideBlue)" stroke-width="10"/>
    <circle cx="45" cy="177" r="8.5" fill="white" stroke="url(#guideBlue)" stroke-width="7"/>

    <path d="M76 130V102L122 82V36" stroke="url(#guideBlue)" stroke-width="10"/>
    <circle cx="122" cy="26" r="8.5" fill="white" stroke="url(#guideBlue)" stroke-width="7"/>

    <path
      d="M199 75C182.5 59.9 161.2 51.7 138.7 52C92.7 52.5 55.6 89.9 55.6 136C55.6 181.8 92.7 219 138.6 219C181.8 219 217.3 186.2 221.5 144.1"
      stroke="url(#guideBlue)"
      stroke-width="16"
    />
    <path
      d="M173.5 91.6C163.9 84.2 152 80 139.2 80C108.4 80 83.5 105.1 83.5 136C83.5 166.9 108.4 192 139.2 192C159.1 192 176.5 181.6 186.4 166"
      stroke="url(#guideOrange)"
      stroke-width="14"
    />
    <path d="M144 143H220" stroke="url(#guideBlue)" stroke-width="17"/>
  </g>
</svg>
